<?xml version="1.0" encoding="UTF-8" standalone="no"?><!DOCTYPE svg PUBLIC "-//W3C//DTD SVG 1.1//EN" "http://www.w3.org/Graphics/SVG/1.1/DTD/svg11.dtd"><svg viewBox="0 0 2118 2131" version="1.1" xmlns="http://www.w3.org/2000/svg" xmlns:xlink="http://www.w3.org/1999/xlink" xml:space="preserve" xmlns:serif="http://www.serif.com/" style="fill-rule:evenodd;clip-rule:evenodd;stroke-linejoin:round;stroke-miterlimit:2;"><g><g><clipPath id="_clip1"><rect x="-109.847" y="2.083" width="2227.35" height="2239.18"/></clipPath><g clip-path="url(#_clip1)"><path d="M1786.6,220.348c150.769,429.516 142.004,891.026 236.672,1332.81c26.297,122.719 61.36,244.123 109.133,360.268c1.314,3.506 12.71,6.574 11.833,4.821c-172.683,-421.627 -168.738,-884.891 -250.697,-1327.12c-22.791,-124.034 -53.032,-246.753 -94.669,-365.965c-1.753,-3.945 -13.148,-7.013 -12.272,-4.821Z" style="fill-rule:nonzero;"/></g><path d="M1779.15,217.28c-11.396,152.083 -60.045,296.716 -106.941,440.473c-46.896,143.756 -85.027,287.951 -102.558,438.281c-0.877,7.013 12.272,8.766 13.148,1.315c18.408,-155.152 58.73,-302.852 106.941,-450.553c45.581,-139.812 91.601,-280.501 102.558,-428.202c0.438,-7.45 -12.272,-9.203 -13.148,-1.314Z" style="fill-rule:nonzero;"/><path d="M1781.34,229.113c-90.724,92.478 -183.64,182.764 -279.185,270.42c-46.02,42.513 -93.793,82.835 -139.812,125.787c-39.007,36.377 -74.508,76.261 -115.268,110.885c-6.575,5.698 1.753,7.013 6.136,3.068c40.76,-34.624 76.261,-74.508 115.268,-110.885c45.581,-42.952 93.792,-83.274 139.812,-125.787c95.545,-87.656 188.461,-177.942 279.185,-270.42c6.136,-6.574 -2.191,-7.451 -6.136,-3.068Z" style="fill-rule:nonzero;"/><path d="M1783.97,216.403c-123.596,83.712 -280.062,109.132 -424.695,133.238c-156.905,26.297 -312.057,51.279 -463.702,101.681c-7.889,2.63 -3.506,12.272 3.944,9.642c157.343,-51.717 318.193,-76.261 480.357,-104.311c141.565,-24.544 291.896,-51.279 413.3,-133.237c7.012,-4.822 -3.945,-10.519 -9.204,-7.013Z" style="fill-rule:nonzero;"/><clipPath id="_clip2"><rect x="-109.847" y="2.083" width="2227.35" height="2239.18"/></clipPath><g clip-path="url(#_clip2)"><path d="M1790.1,221.224c-213.444,-76.261 -440.473,-99.928 -665.312,-117.459c-114.391,-8.766 -228.783,-15.778 -342.736,-27.174c-119.651,-11.833 -237.549,-31.994 -356.323,-52.155c-138.059,-23.668 -276.118,-36.816 -415.929,-46.896c-3.945,-0.439 -14.464,6.574 -7.451,7.012c123.595,9.204 246.752,19.284 369.033,39.007c118.774,19.285 236.672,42.075 356.323,55.224c224.838,24.982 451.868,30.241 676.269,61.359c127.978,17.97 254.641,44.266 376.483,87.656c3.507,1.315 14.902,-4.382 9.643,-6.574Z" style="fill-rule:nonzero;"/></g><clipPath id="_clip3"><rect x="-109.847" y="2.083" width="2227.35" height="2239.18"/></clipPath><g clip-path="url(#_clip3)"><path d="M1794.49,219.909c-102.119,-98.175 -226.153,-170.053 -330.026,-266.037c-3.506,-3.068 -15.339,2.192 -11.395,5.698c104.311,95.984 227.906,167.862 330.026,266.037c3.068,3.068 14.902,-2.63 11.395,-5.698Z" style="fill-rule:nonzero;"/></g><clipPath id="_clip4"><rect x="-109.847" y="2.083" width="2227.35" height="2239.18"/></clipPath><g clip-path="url(#_clip4)"><path d="M1795.36,223.416c-7.889,-83.274 10.957,-171.369 24.982,-252.889c0.438,-2.63 -12.272,-4.821 -13.148,-2.191c-14.025,81.52 -33.31,169.615 -24.982,252.888c0.438,3.945 13.148,4.383 13.148,2.192Z" style="fill-rule:nonzero;"/></g><clipPath id="_clip5"><rect x="-109.847" y="2.083" width="2227.35" height="2239.18"/></clipPath><g clip-path="url(#_clip5)"><path d="M1795.36,222.977c52.156,-53.908 107.817,-109.57 173.121,-147.701c70.125,-40.76 147.263,-67.495 211.69,-118.336c-0.438,0.439 -10.08,-3.068 -12.71,-0.876c-65.742,52.155 -145.509,78.452 -216.511,121.404c-63.113,38.13 -117.459,92.039 -168.3,145.071c0.876,-1.315 10.08,3.068 12.71,0.438Z" style="fill-rule:nonzero;"/></g><clipPath id="_clip6"><rect x="-109.847" y="2.083" width="2227.35" height="2239.18"/></clipPath><g clip-path="url(#_clip6)"><path d="M1798.87,224.73c156.467,-27.173 313.81,-46.896 471.591,-59.168c8.766,-0.876 1.753,-9.642 -4.383,-9.204c-158.219,12.272 -315.562,31.995 -471.591,59.168c-8.765,1.315 -1.753,10.081 4.383,9.204Z" style="fill-rule:nonzero;"/></g><clipPath id="_clip7"><rect x="-109.847" y="2.083" width="2227.35" height="2239.18"/></clipPath><g clip-path="url(#_clip7)"><path d="M1780.46,229.551c80.206,58.73 159.973,117.898 240.179,176.628c71.878,53.032 148.139,103.873 203.801,174.874c5.259,6.575 12.71,-0.876 7.889,-7.45c-54.785,-69.687 -128.855,-120.09 -199.418,-172.245c-82.397,-60.483 -164.794,-121.404 -247.191,-181.887c-7.013,-4.821 -11.396,5.259 -5.26,10.08Z" style="fill-rule:nonzero;"/></g><clipPath id="_clip8"><rect x="-109.847" y="2.083" width="2227.35" height="2239.18"/></clipPath><g clip-path="url(#_clip8)"><path d="M537.056,-0.108c-8.327,15.778 -17.093,31.118 -25.42,46.896c-0.438,0.877 0,2.191 0.877,3.068c99.49,97.299 201.609,191.967 292.334,298.032c18.407,21.475 36.377,43.389 54.346,65.742c10.957,13.587 20.161,29.803 31.557,42.951c7.889,8.766 21.037,13.587 31.118,19.285c17.093,9.642 34.186,18.846 51.279,28.488c37.254,20.599 75.384,40.322 110.885,63.113c59.606,38.13 104.749,99.051 141.565,158.219c17.969,28.927 51.279,46.02 76.699,69.249c27.612,25.42 53.471,52.594 81.082,78.014c59.607,56.1 120.528,112.2 164.794,181.887c7.889,12.272 12.272,25.858 19.285,38.569c6.135,11.395 18.846,11.833 31.118,14.901c39.007,9.204 77.137,18.846 114.391,33.748c83.274,32.871 160.411,82.397 226.153,142.88c15.34,14.025 28.927,30.241 45.582,42.513c15.34,10.957 32.433,14.463 49.964,19.723c42.951,13.148 76.261,44.704 93.792,85.903c1.753,4.383 14.902,2.63 12.272,-3.068c-12.272,-30.242 -33.309,-55.662 -60.921,-72.755c-12.272,-7.451 -25.421,-13.148 -39.007,-17.531c-25.421,-7.451 -45.143,-15.34 -64.428,-34.186c-56.538,-54.785 -118.336,-102.558 -188.023,-139.374c-35.062,-17.969 -71.439,-33.309 -108.693,-45.581c-18.408,-6.136 -37.254,-10.957 -56.1,-15.34c-13.587,-3.068 -36.378,-3.944 -43.829,-16.655c-8.327,-14.025 -13.586,-29.364 -22.79,-42.951c-11.396,-17.093 -23.229,-33.31 -36.378,-49.088c-25.42,-30.679 -53.47,-59.168 -81.958,-86.779c-58.73,-56.539 -116.145,-114.83 -180.572,-164.794c-24.982,-19.285 -39.884,-54.786 -59.168,-79.768c-21.038,-28.05 -44.267,-54.346 -70.564,-77.575c-29.365,-25.421 -63.55,-43.39 -96.86,-62.236c-36.377,-20.6 -72.755,-40.322 -109.132,-60.483c-10.957,-6.136 -17.97,-10.081 -24.544,-20.161c-5.697,-8.328 -11.833,-15.778 -17.531,-23.667c-15.34,-20.161 -31.556,-39.446 -47.773,-59.168c-37.254,-44.267 -74.508,-88.533 -115.706,-128.855c-37.692,-36.816 -74.946,-73.632 -112.638,-110.009c-18.408,-17.969 -36.378,-35.939 -54.786,-53.47c-11.833,-11.396 -22.352,-17.532 -16.216,-34.186c4.383,-11.396 12.272,-22.791 17.969,-33.31c1.754,-5.697 -11.395,-6.574 -14.025,-2.191Z" style="fill-rule:nonzero;"/></g><clipPath id="_clip9"><rect x="-109.847" y="2.083" width="2227.35" height="2239.18"/></clipPath><g clip-path="url(#_clip9)"><path d="M1806.32,-19.831c-21.037,67.934 -106.064,123.157 -176.627,105.188c-3.507,-0.877 -10.081,0.876 -10.957,4.821c-9.643,35.501 -28.051,60.483 -65.743,67.934c-1.315,0.438 -9.642,3.944 -6.574,6.136c41.637,28.488 63.989,86.341 58.73,135.867c-0,2.191 2.629,2.191 3.944,2.191c19.285,-2.629 40.76,10.081 52.156,24.982c5.697,7.451 7.451,13.149 17.093,15.778c16.655,3.945 31.556,3.945 46.458,14.902c11.395,8.327 20.599,19.284 28.488,31.118c1.315,1.753 3.944,1.315 5.698,0.877c25.858,-6.136 55.661,-22.353 77.575,-0.439c2.63,2.63 10.081,-0.876 11.396,-3.506c14.901,-28.488 43.828,-46.896 74.069,-54.347c1.315,-0.438 7.889,-2.63 7.013,-5.259c-15.778,-39.446 -21.476,-82.397 -3.506,-122.281c0.438,-0.876 0.876,-1.753 -0,-2.191c-32.433,-21.914 -26.736,-60.921 -18.408,-93.793c0.438,-2.191 -2.63,-2.191 -3.945,-2.191c-39.445,1.315 -76.261,-12.272 -106.064,-37.692c-3.068,-2.63 -10.519,0.876 -11.833,4.383c-13.149,35.5 -53.471,59.168 -88.972,67.057c-1.753,0.438 -7.889,2.629 -7.012,5.259c7.451,18.846 16.216,33.748 -3.506,48.649c-0.877,0.439 -3.507,3.068 -1.754,3.945c17.97,10.08 25.859,47.334 21.915,65.742c-0.439,1.315 1.314,2.192 2.629,2.192c11.396,-0 19.285,2.629 22.791,14.025c0.438,1.314 2.63,1.314 3.944,1.314c16.217,-2.191 28.05,4.383 36.378,17.093c1.315,1.754 3.506,1.315 5.697,0.877c14.464,-2.63 24.983,1.315 35.501,9.204c2.63,2.191 11.396,-0.438 11.834,-4.383c2.191,-14.463 8.766,-27.173 26.297,-30.68c1.315,-0.438 8.327,-2.629 7.012,-5.259c-10.518,-18.846 -10.518,-38.569 0.877,-56.977c0.438,-0.876 0.876,-1.753 -0,-2.191c-16.655,-11.834 -19.285,-36.377 -3.506,-50.402c3.506,-3.068 -1.754,-4.383 -4.383,-3.507c-19.723,5.698 -40.76,1.753 -55.224,-13.586c-2.191,-2.63 -10.08,0.876 -11.395,3.506c-5.259,10.519 -10.957,21.914 -21.476,28.05c-6.574,3.506 -14.463,5.259 -21.476,8.327c-1.314,0.439 -6.136,2.63 -5.259,4.821c3.068,7.889 1.753,16.655 -0,24.544c-0.877,3.945 11.395,1.315 12.272,-3.068c2.191,-8.765 3.506,-17.531 -0,-26.297c-1.753,1.753 -3.506,3.506 -5.26,4.821c25.859,-10.957 39.446,-16.216 52.594,-42.951c-3.944,1.315 -7.889,2.191 -11.395,3.506c17.093,17.97 42.513,20.599 65.304,14.025c-1.315,-1.315 -3.068,-2.191 -4.383,-3.506c-16.216,14.463 -14.901,32.433 -5.698,49.964c6.136,11.395 0,15.34 -1.753,28.488c-1.753,13.149 1.315,24.982 7.889,36.378c2.192,-1.754 4.383,-3.507 7.013,-5.26c-21.038,4.383 -36.816,17.97 -40.322,39.884c3.945,-1.315 7.889,-3.068 11.834,-4.383c-14.025,-10.519 -28.489,-12.71 -45.582,-10.081c1.753,0.439 3.507,0.439 5.698,0.877c-6.136,-9.204 -13.587,-15.778 -24.106,-18.846c-1.314,-0.438 -13.148,-1.315 -13.586,-1.753c-3.945,-2.192 -3.945,-4.383 -7.013,-7.013c-4.383,-3.944 -17.969,-5.259 -20.161,-8.327c-2.191,-3.068 -0.876,-20.599 -2.191,-24.982c-2.192,-10.081 -5.26,-21.038 -10.957,-30.242c-6.574,-10.08 -7.889,-5.259 -2.192,-14.463c11.396,-17.969 6.136,-27.612 -1.753,-47.773c-2.191,1.754 -4.383,3.507 -7.012,5.26c40.76,-9.204 87.656,-35.063 102.558,-76.261c-3.945,1.315 -7.889,3.068 -11.834,4.383c22.352,18.846 48.211,31.556 76.699,36.815c7.013,1.315 14.025,0.877 21.038,2.192c10.08,2.191 6.574,-2.63 9.642,5.259c2.191,5.26 -4.383,23.229 -4.821,29.365c-0.438,5.259 -0.438,10.519 0.438,15.778c1.315,12.272 5.698,24.106 13.587,33.748c12.272,14.901 5.698,20.161 2.191,37.254c-6.574,32.871 0.439,66.18 12.711,96.422c2.191,-1.753 4.382,-3.507 7.012,-5.26c-35.062,8.766 -70.125,28.927 -87.218,61.798c3.945,-1.315 7.889,-2.191 11.395,-3.506c-24.982,-24.982 -58.729,-7.451 -87.656,-0.438c1.753,0.438 3.506,0.438 5.698,0.876c-14.025,-21.476 -35.063,-42.513 -60.921,-47.334c-4.383,-0.877 -8.328,-1.315 -12.711,-0.877c-9.204,-2.191 -15.339,-6.574 -18.407,-14.463c-3.068,-3.068 -5.26,-5.698 -9.204,-8.766c-11.396,-9.642 -22.791,-14.901 -36.816,-18.846c-10.08,-2.63 -7.451,2.63 -9.642,-7.889c-1.315,-5.259 -0,-12.272 -0.877,-17.531c-1.315,-14.025 -4.821,-27.612 -9.204,-40.76c-10.08,-27.612 -26.297,-53.033 -50.84,-69.687c-2.192,2.191 -4.383,3.944 -6.575,6.136c43.39,-8.328 67.934,-35.501 79.768,-77.138c-3.507,1.753 -7.451,3.068 -10.957,4.821c78.014,20.161 175.312,-38.569 198.979,-114.83c0.439,-1.753 -12.271,0.439 -13.148,4.383Z" style="fill-rule:nonzero;"/></g><clipPath id="_clip10"><rect x="-109.847" y="2.083" width="2227.35" height="2239.18"/></clipPath><g clip-path="url(#_clip10)"><path d="M1807.2,-4.929c60.482,49.964 134.552,76.261 212.566,56.1c-2.629,-3.068 -5.259,-6.136 -8.327,-9.204c-31.118,21.037 -56.977,52.155 -43.828,91.601c9.642,30.241 36.815,46.896 65.742,55.223c-2.191,-2.629 -4.383,-5.697 -6.136,-8.327c-23.667,35.939 -38.131,77.138 -48.649,118.336c-9.204,37.254 -3.507,63.551 23.667,91.163c-0.438,-2.192 -0.877,-4.383 -1.315,-6.136c-37.692,13.586 -72.316,35.062 -102.558,61.797c-13.587,11.834 -25.858,32.433 -43.39,36.816c-17.093,4.821 -36.815,-6.574 -55.661,-5.259c-19.285,1.314 -37.254,9.204 -56.101,12.71c-24.543,3.944 -42.951,-15.778 -62.674,-27.612c-32.871,-19.723 -64.427,-41.198 -104.311,-35.939l9.204,6.574c-7.889,-26.735 -22.791,-51.717 -41.637,-72.316c-8.327,-9.204 -17.531,-17.97 -28.488,-24.544c-4.383,-3.068 -11.395,-4.821 -15.34,-7.889c-9.642,-7.889 -7.451,-21.038 -8.765,-31.995c-7.451,-63.989 -42.075,-121.842 -92.04,-161.726c0.877,2.63 1.754,4.821 2.63,7.451c33.31,-13.148 67.495,-27.173 95.107,-50.402c13.587,-11.396 24.106,-24.982 32.433,-40.76c11.395,-21.476 27.174,-24.982 48.211,-33.748c70.563,-29.803 127.102,-88.533 156.028,-159.096c-2.629,-0.439 -4.821,-0.439 -7.45,-0.877c117.459,78.014 245.875,159.535 393.138,146.386c-2.63,-3.068 -5.259,-6.136 -8.327,-9.204c-39.446,18.846 -55.662,66.619 -41.637,106.941c13.148,38.569 49.088,62.236 85.903,74.946c-2.191,-2.63 -4.383,-5.698 -6.136,-8.327c-45.143,39.883 -66.18,106.064 -77.137,163.917c-8.328,43.828 -5.26,105.626 33.309,135.429l-1.315,-7.889c-61.359,19.284 -124.033,33.309 -173.998,76.699c-9.642,8.328 -18.407,17.093 -26.296,27.174c-8.328,10.957 -14.902,33.748 -28.489,34.186c-14.025,0.876 -30.241,-5.26 -44.704,-6.136c-16.217,-0.877 -32.433,-0.438 -48.211,1.315c-17.093,1.753 -33.748,5.259 -50.403,10.08c-12.71,3.945 -30.68,15.778 -43.828,14.025c-9.642,-1.315 -23.229,-20.599 -30.68,-28.05c-10.518,-10.08 -22.352,-19.723 -34.186,-28.05c-23.229,-16.216 -48.649,-29.365 -75.384,-39.445c-14.463,-5.26 -29.803,-7.889 -44.267,-12.71c-19.284,-6.575 -22.79,-24.982 -31.556,-41.199c-30.241,-54.347 -78.891,-97.298 -136.305,-121.404l5.259,6.574c4.383,-28.05 8.327,-56.538 12.71,-84.588c3.945,-25.42 7.889,-50.841 2.63,-76.261c-5.698,-25.42 -17.093,-60.483 -43.39,-71.44c1.753,2.63 3.068,5.259 4.821,7.451c24.982,-26.735 54.347,-46.896 67.934,-81.959c14.463,-37.254 16.654,-76.699 3.506,-114.391c-1.753,-4.383 -13.149,-8.328 -10.519,-1.315c13.587,39.445 9.204,85.027 -10.08,121.842c-14.464,27.612 -40.76,45.581 -61.798,68.372c-2.191,2.63 3.068,7.013 4.821,7.451c30.242,12.71 37.254,70.125 35.501,97.298c-3.068,40.761 -11.395,81.521 -17.093,121.404c-0.438,2.63 3.068,5.698 5.259,6.575c55.662,23.229 102.12,64.865 130.17,118.336c8.327,15.778 12.272,35.5 30.241,42.513c11.834,4.821 25.421,6.136 37.693,9.642c16.654,4.821 32.432,11.396 48.211,19.285c28.488,14.463 55.223,33.309 77.575,56.1c9.204,9.642 20.161,28.488 35.501,28.05c10.081,-0 21.914,-7.889 31.118,-11.396c17.093,-6.136 34.624,-10.518 52.594,-13.148c37.254,-5.698 74.508,-3.506 110.885,5.259c0.877,0.439 3.945,0.877 4.383,-0.876c36.377,-90.286 134.553,-113.077 217.826,-139.812c4.383,-1.315 0.877,-6.136 -1.315,-7.889c-43.39,-33.31 -30.68,-111.324 -18.408,-155.59c13.149,-47.773 30.68,-96.422 68.372,-130.17c3.068,-2.63 -4.382,-7.889 -6.136,-8.327c-36.815,-12.71 -71.44,-38.569 -77.137,-79.767c-4.383,-34.186 12.272,-69.249 43.828,-84.151c5.259,-2.629 -5.259,-9.642 -8.327,-9.203c-142.88,13.148 -267.352,-67.058 -381.744,-142.442c-1.315,-0.877 -6.574,-3.506 -7.45,-0.877c-29.804,72.317 -87.657,131.485 -160.412,160.412c-15.778,6.136 -30.241,9.642 -39.883,24.982c-9.204,14.901 -16.217,28.926 -28.927,41.636c-28.05,26.736 -65.304,41.637 -100.805,55.662c-3.506,1.315 1.315,6.574 2.63,7.451c27.612,21.914 49.526,49.526 64.428,81.52c7.012,14.902 12.71,31.118 16.216,47.335c3.506,14.463 2.63,29.365 5.698,43.828c4.821,22.791 26.297,24.544 42.075,38.569c23.229,20.161 41.636,48.649 50.402,78.014c0.877,3.506 5.259,7.012 9.204,6.574c53.909,-7.451 92.039,38.569 135.867,60.921c30.242,15.34 67.496,-12.71 99.928,-9.642c14.464,1.315 31.995,13.587 46.897,8.327c13.586,-5.259 24.543,-24.105 35.062,-34.186c31.556,-29.365 68.81,-53.47 109.571,-67.933c3.068,-0.877 -0,-5.26 -1.315,-6.136c-31.557,-31.995 -24.982,-63.551 -13.587,-102.558c9.642,-33.748 22.791,-66.181 42.075,-95.546c2.191,-3.506 -3.506,-7.45 -6.136,-8.327c-31.118,-8.766 -57.853,-31.118 -56.1,-66.18c1.315,-28.05 23.667,-48.211 45.143,-62.675c4.821,-3.068 -4.821,-10.08 -8.327,-9.204c-72.755,19.285 -142.004,-3.068 -198.542,-49.964c-5.259,-3.944 -14.025,-1.753 -7.012,3.945Z" style="fill-rule:nonzero;"/></g><clipPath id="_clip11"><rect x="-109.847" y="2.083" width="2227.35" height="2239.18"/></clipPath><g clip-path="url(#_clip11)"><path d="M2196.39,533.719c-90.286,30.241 -177.066,76.261 -252.012,134.991c-9.204,7.012 -17.532,14.463 -26.297,21.914c-14.025,11.833 -25.42,16.216 -44.267,14.463c-23.667,-2.191 -47.334,-3.944 -71.439,-3.506c-54.347,0.876 -107.379,10.08 -159.097,26.297c2.63,1.315 5.698,2.629 8.328,3.506c-28.927,-45.143 -67.496,-83.274 -113.077,-111.324c-22.352,-13.586 -46.02,-24.982 -70.563,-33.747c-10.957,-3.945 -22.353,-7.013 -33.31,-9.642c-6.574,-1.754 -12.71,-1.754 -17.531,-6.575c-5.259,-5.259 -8.766,-15.778 -12.71,-21.914c-30.68,-51.279 -68.81,-98.175 -112.639,-138.935c-9.204,-8.766 -19.284,-16.216 -28.488,-24.982c-17.093,-16.655 -14.025,-37.692 -12.71,-59.168c1.753,-25.42 -0.877,-50.841 -7.013,-75.385c-14.025,-56.538 -47.772,-106.502 -94.23,-141.565c0.438,3.068 1.315,5.698 1.753,8.766c104.749,-83.712 210.813,-184.516 222.647,-326.081c0.438,-6.136 -11.395,-10.081 -12.272,-2.192c-11.833,138.059 -117.459,237.549 -219.141,319.069c-3.068,2.63 -0.876,6.574 1.753,8.766c59.169,44.705 95.108,116.144 95.108,190.652c-0,26.736 -14.025,56.1 7.889,76.7c28.926,27.173 58.291,51.279 84.588,81.52c25.859,29.803 48.649,62.236 68.372,96.422c4.821,8.327 7.451,17.97 16.216,22.791c6.575,3.506 18.408,3.944 25.859,5.697c10.08,2.63 20.161,5.698 30.241,9.642c69.687,25.859 129.294,74.07 169.615,136.306c1.754,2.63 5.26,4.821 8.328,3.506c54.785,-17.093 111.323,-26.297 168.738,-25.858c24.982,0.438 51.717,7.45 76.699,4.821c19.285,-2.192 32.872,-18.408 47.335,-30.242c76.261,-62.674 166.985,-111.323 260.339,-142.441c6.574,-3.945 -1.315,-14.025 -7.012,-12.272Z" style="fill-rule:nonzero;"/></g><clipPath id="_clip12"><rect x="-109.847" y="2.083" width="2227.35" height="2239.18"/></clipPath><g clip-path="url(#_clip12)"><path d="M2188.06,756.804c-48.211,-9.642 -97.298,-9.642 -145.509,0c-24.544,5.26 -48.649,12.71 -71.878,23.229c-11.396,5.26 -22.353,11.396 -34.186,16.655c-18.846,8.327 -35.939,8.766 -56.1,6.136c-92.478,-12.272 -180.572,-19.285 -262.531,34.186l10.519,3.944c-27.612,-44.704 -71.878,-71.878 -119.213,-92.039c-28.488,-12.272 -57.853,-22.352 -87.218,-32.433c-28.05,-10.08 -74.946,-20.161 -92.477,-46.457c-10.081,-15.779 -13.587,-38.131 -18.846,-55.662c-4.822,-17.093 -9.643,-34.186 -15.779,-51.279c-10.518,-29.365 -24.105,-58.292 -45.581,-81.521c-36.816,-39.883 -87.656,-63.55 -135.867,-86.341c1.315,1.753 2.629,3.506 4.383,5.698c-3.945,-54.347 10.08,-113.515 -7.013,-166.109c-17.093,-53.032 -56.1,-105.188 -101.243,-137.621c0.438,2.192 1.315,4.383 1.753,6.136c59.168,-66.618 102.996,-142.441 116.583,-231.412c0.877,-4.821 -11.395,-10.081 -12.272,-4.383c-13.148,87.656 -56.976,162.164 -114.83,227.906c-1.753,2.192 -0.438,4.821 1.754,6.136c44.266,31.557 86.341,87.218 98.613,140.689c11.395,49.964 0.438,102.996 4.383,153.837c-0,2.191 2.191,4.382 4.383,5.697c52.155,24.544 111.323,50.403 145.071,99.928c19.284,28.489 30.241,62.675 39.883,95.546c7.889,27.612 11.834,63.989 33.31,84.588c16.216,15.778 40.76,23.229 61.359,31.118c25.859,10.081 52.594,18.408 78.453,28.05c56.976,21.038 115.706,46.896 149.015,100.367c1.754,3.068 7.013,6.136 10.519,3.944c39.884,-26.297 84.15,-40.322 131.923,-42.951c48.211,-2.192 93.792,9.204 141.127,11.833c21.475,1.315 39.007,-5.697 57.853,-15.34c23.667,-11.833 47.334,-21.475 72.755,-28.05c51.717,-13.586 105.625,-14.901 158.219,-4.383c10.081,0.877 4.383,-8.765 -1.315,-9.642Z" style="fill-rule:nonzero;"/></g><clipPath id="_clip13"><rect x="-109.847" y="2.083" width="2227.35" height="2239.18"/></clipPath><g clip-path="url(#_clip13)"><path d="M2203.4,950.087c-57.415,-22.353 -119.212,-30.68 -180.572,-21.915c-36.377,4.822 -67.933,20.161 -104.311,8.328c-31.118,-10.081 -62.236,-18.846 -94.23,-24.106c-65.743,-10.957 -129.732,-7.451 -195.474,2.63c-24.106,3.506 -38.131,-3.945 -56.538,-18.408c-12.711,-10.08 -25.859,-20.161 -39.007,-29.803c-25.859,-18.408 -52.594,-35.063 -80.206,-49.964c-53.47,-29.365 -109.57,-51.717 -168.3,-68.81c-17.531,-5.26 -32.433,-12.71 -41.199,-29.803c-5.259,-10.081 -7.889,-21.915 -12.271,-32.433c-7.89,-19.723 -17.093,-39.007 -28.05,-56.977c-23.668,-39.445 -55.224,-73.193 -90.725,-102.12c-22.79,-18.407 -46.896,-34.624 -71.878,-49.525c-24.105,-14.464 -57.853,-26.297 -71.44,-53.032c-7.889,-15.779 -7.451,-36.378 -10.519,-53.909c-3.068,-17.093 -6.574,-34.186 -11.395,-51.279c-8.327,-29.803 -18.846,-58.73 -31.995,-86.342c-27.611,-58.729 -66.18,-111.323 -113.076,-156.028l-0,6.136c49.526,-70.563 81.082,-151.645 91.601,-237.11c0.876,-7.013 -11.396,-3.945 -12.272,1.753c-10.519,83.712 -40.76,163.041 -89.41,231.851c-1.314,1.753 -1.753,4.383 0,6.136c44.705,41.637 81.521,91.601 108.694,146.824c27.174,55.224 40.76,112.639 49.964,173.121c3.945,26.736 17.97,43.829 40.76,57.415c26.736,15.778 53.471,30.242 78.891,47.773c42.952,29.803 81.959,65.304 111.324,108.694c11.833,17.531 22.352,36.377 31.118,56.1c8.765,19.723 13.148,44.266 27.173,60.921c17.093,20.599 48.649,23.667 72.755,31.556c29.803,10.081 59.168,21.914 87.656,35.063c60.483,28.488 115.268,64.866 167.424,106.064c23.667,18.846 41.637,17.97 70.563,13.148c35.501,-6.135 71.878,-8.765 107.817,-7.45c41.637,1.315 82.836,7.45 123.158,17.969c29.803,7.889 59.168,23.229 90.724,17.97c40.322,-7.013 76.699,-17.531 117.898,-15.778c40.322,1.314 79.767,10.08 117.459,24.543c5.698,2.63 14.463,-6.574 7.889,-9.203Z" style="fill-rule:nonzero;"/></g><clipPath id="_clip14"><rect x="-109.847" y="2.083" width="2227.35" height="2239.18"/></clipPath><g clip-path="url(#_clip14)"><path d="M2166.15,1163.97c-42.513,-24.106 -89.409,-39.007 -138.497,-42.075c-26.735,-1.753 -52.155,1.315 -77.137,-10.081c-23.229,-10.518 -45.143,-24.105 -67.934,-35.5c-90.724,-45.582 -193.282,-80.206 -294.525,-53.032c-4.383,1.314 -10.957,10.08 -2.63,7.889c106.941,-28.489 215.196,15.339 308.55,64.427c19.723,10.08 39.007,23.229 60.483,30.241c18.846,6.136 38.569,3.945 58.292,4.822c50.84,1.753 99.928,16.654 144.194,42.075c2.63,1.314 12.711,-6.575 9.204,-8.766Z" style="fill-rule:nonzero;"/></g><clipPath id="_clip15"><rect x="-109.847" y="2.083" width="2227.35" height="2239.18"/></clipPath><g clip-path="url(#_clip15)"><path d="M968.764,423.272c-54.785,-98.175 -121.842,-190.214 -204.678,-266.914c-20.161,-18.846 -41.636,-36.377 -63.551,-53.032c-11.395,-8.765 -23.228,-17.093 -35.5,-24.982c-17.093,-11.395 -30.68,-23.667 -19.285,-46.019c14.464,-29.365 41.199,-55.662 60.483,-82.397c18.846,-26.735 37.254,-54.347 54.785,-81.959c4.383,-7.451 -6.136,-8.327 -9.642,-3.068c-18.846,30.242 -38.569,59.606 -59.606,88.971c-18.408,25.421 -42.952,50.403 -56.977,78.453c-10.957,22.352 -4.821,37.692 14.902,51.279c24.982,17.093 49.087,34.186 72.316,53.47c97.299,81.082 173.998,183.64 235.796,293.649c2.629,4.383 14.025,-2.192 10.957,-7.451Z" style="fill-rule:nonzero;"/></g><clipPath id="_clip16"><rect x="-109.847" y="2.083" width="2227.35" height="2239.18"/></clipPath><g clip-path="url(#_clip16)"><path d="M1996.1,1330.08c28.05,-93.793 117.021,-142.88 202.486,-176.19c0.438,0 -5.698,-11.395 -7.889,-10.518c-85.903,32.871 -174.436,81.958 -202.486,176.189c-0.877,3.506 8.327,9.642 7.889,10.519Z" style="fill-rule:nonzero;"/></g><path d="M1989.52,1302.03c-90.286,-142.442 -237.987,-247.191 -404.096,-276.994c-7.889,-1.315 -3.506,10.08 1.753,10.957c162.164,28.926 305.921,129.731 394.015,268.666c3.507,6.136 12.711,4.821 8.328,-2.629Z" style="fill-rule:nonzero;"/><clipPath id="_clip17"><rect x="-109.847" y="2.083" width="2227.35" height="2239.18"/></clipPath><g clip-path="url(#_clip17)"><path d="M1979.44,1323.5c84.15,124.472 165.232,257.272 179.696,410.232c0.438,3.068 11.833,7.451 11.833,4.821c-14.463,-153.398 -95.983,-286.636 -180.572,-411.546c-1.315,-2.63 -12.71,-6.575 -10.957,-3.507Z" style="fill-rule:nonzero;"/></g><clipPath id="_clip18"><rect x="-109.847" y="2.083" width="2227.35" height="2239.18"/></clipPath><g clip-path="url(#_clip18)"><path d="M106.664,6.466c289.266,95.107 559.686,247.629 785.839,452.745c4.383,3.945 16.216,-0.876 10.957,-5.698c-227.468,-206.43 -499.641,-359.829 -790.66,-455.812c-6.574,-2.192 -14.463,6.135 -6.136,8.765Z" style="fill-rule:nonzero;"/></g><path d="M264.884,63.881c69.248,49.526 156.028,11.834 232.289,33.309c44.266,12.711 62.236,54.786 101.243,76.261c23.667,12.711 40.322,31.118 62.236,46.02c13.148,8.766 26.735,14.025 42.513,12.272c5.698,-0.438 -3.068,-10.081 -7.012,-9.642c-30.242,3.068 -47.773,-23.229 -69.249,-39.446c-17.531,-13.148 -39.007,-19.284 -54.785,-35.062c-12.71,-12.71 -21.476,-28.05 -35.939,-39.007c-11.395,-8.766 -24.106,-14.902 -37.254,-19.285c-75.385,-24.543 -164.794,15.779 -232.728,-32.871c-7.45,-4.383 -6.136,3.945 -1.314,7.451Z" style="fill-rule:nonzero;"/><path d="M501.556,97.19c19.284,0.439 38.13,-2.629 56.1,-9.642c7.889,-3.068 -0.439,-10.08 -6.575,-7.889c-16.216,6.136 -32.432,9.204 -49.525,8.766c-7.889,-0 -8.328,8.327 -0,8.765Z" style="fill-rule:nonzero;"/><clipPath id="_clip19"><rect x="-109.847" y="2.083" width="2227.35" height="2239.18"/></clipPath><g clip-path="url(#_clip19)"><path d="M1586.74,1105.24c49.087,39.446 110.009,62.236 155.59,106.503c30.68,29.365 56.538,63.55 83.273,96.422c24.544,30.679 48.211,62.236 69.687,95.545c58.292,89.409 108.256,183.202 159.535,276.994c1.315,2.191 6.574,7.451 7.889,2.63c12.272,-42.952 28.05,-85.027 51.717,-123.157c17.093,-27.612 40.76,-59.168 74.508,-66.619c6.136,-1.315 1.315,-13.587 -3.506,-12.272c-33.31,7.451 -56.977,35.501 -74.508,62.674c-25.859,39.884 -43.39,85.027 -56.539,130.608l7.89,2.63c-42.076,-76.7 -82.836,-154.714 -128.855,-229.222c-26.297,-42.513 -53.909,-84.588 -84.589,-124.033c-37.692,-48.65 -76.699,-102.558 -125.348,-141.127c-42.514,-33.309 -93.354,-54.785 -135.429,-88.533c-6.136,-4.821 -5.26,7.889 -1.315,10.957Z" style="fill-rule:nonzero;"/></g><path d="M800.025,82.727c-45.581,346.681 31.995,689.855 44.267,1035.66c3.506,104.311 1.753,208.622 6.136,312.494c0.438,7.013 12.71,2.63 12.272,-3.506c-3.507,-91.162 -2.63,-182.325 -4.821,-273.488c-2.192,-88.094 -9.204,-175.75 -17.97,-262.969c-16.655,-171.368 -37.254,-342.736 -41.198,-514.542c-2.192,-98.175 0.876,-196.35 14.025,-294.087c0.876,-7.889 -11.834,-5.698 -12.711,0.438Z" style="fill-rule:nonzero;"/><ellipse cx="856.125" cy="1597.43" rx="145.51" ry="172.245"/><ellipse cx="856.125" cy="1725.85" rx="80.644" ry="116.145"/><path d="M734.721,1650.46c0,-0 -101.243,-5.698 -155.151,-0c-53.909,5.697 -154.275,122.718 -162.164,150.33c-7.89,27.612 -7.89,142.442 -7.89,142.442c0,-0 15.779,-113.954 32.433,-136.306c23.229,-31.556 99.49,-112.2 130.17,-122.719c41.198,-14.463 166.547,3.068 166.547,3.068l-3.945,-36.815Z" style="fill-rule:nonzero;"/><path d="M759.265,1596.99c0,0 -105.626,-37.254 -165.232,-47.773c-59.606,-10.518 -201.609,83.274 -218.702,110.009c-16.655,26.735 -52.156,149.016 -52.156,149.016c0,-0 52.156,-116.583 76.261,-135.429c34.186,-26.297 140.25,-88.533 176.189,-90.724c48.211,-2.63 176.189,54.347 176.189,54.347l7.451,-39.446Z" style="fill-rule:nonzero;"/><path d="M733.407,1534.32c-0,-0 -97.299,-55.662 -143.757,-94.231c-46.458,-38.13 -68.372,-207.307 -59.168,-237.548c9.204,-30.242 78.891,-136.744 78.891,-136.744c-0,-0 -54.347,115.268 -52.594,146.386c2.192,43.39 24.106,163.917 46.02,192.844c29.365,38.13 156.028,98.175 156.028,98.175l-25.42,31.118Z" style="fill-rule:nonzero;"/><path d="M792.136,1479.53c0,-0 -73.193,-99.929 -99.051,-163.479c-25.859,-63.551 -6.575,-209.499 5.697,-247.191c12.272,-37.692 70.564,-99.052 70.564,-99.052c-0,0 -47.335,81.082 -53.909,111.324c-6.574,30.241 -11.395,176.189 4.383,222.647c15.778,46.896 104.749,157.343 104.749,157.343l-32.433,18.408Z" style="fill-rule:nonzero;"/><path d="M977.091,1650.46c0,-0 101.243,-5.698 155.152,-0c53.909,5.697 154.275,122.718 162.164,150.33c7.889,27.612 7.889,142.442 7.889,142.442c0,-0 -15.778,-113.954 -32.433,-136.306c-23.229,-31.556 -99.49,-112.2 -130.169,-122.719c-41.199,-14.463 -166.547,3.068 -166.547,3.068l3.944,-36.815Z" style="fill-rule:nonzero;"/><path d="M952.547,1596.99c0,0 105.626,-37.254 165.233,-47.773c59.606,-10.518 201.609,83.274 218.702,110.009c16.655,26.735 52.156,149.016 52.156,149.016c-0,-0 -52.156,-116.583 -76.7,-134.991c-34.186,-26.297 -140.25,-88.533 -176.189,-90.724c-48.211,-2.63 -176.189,54.347 -176.189,54.347l-7.013,-39.884Z" style="fill-rule:nonzero;"/><path d="M978.406,1534.32c0,-0 97.299,-55.662 143.756,-94.231c46.458,-38.13 68.372,-207.307 59.168,-237.548c-9.203,-30.242 -78.89,-136.744 -78.89,-136.744c-0,-0 54.347,115.268 52.594,146.386c-2.192,43.39 -24.106,163.917 -46.02,192.844c-29.365,38.13 -156.028,98.175 -156.028,98.175l25.42,31.118Z" style="fill-rule:nonzero;"/><path d="M919.676,1479.53c0,-0 73.193,-99.929 99.052,-163.479c25.859,-63.551 6.574,-209.499 -5.698,-247.191c-12.272,-37.692 -70.563,-99.052 -70.563,-99.052c-0,0 47.334,81.082 53.909,111.324c6.574,30.241 11.395,176.189 -4.383,222.647c-15.778,46.896 -104.75,157.343 -104.75,157.343l32.433,18.408Z" style="fill-rule:nonzero;"/><path d="M821.501,1825.77c0,0 -10.08,15.34 -5.697,27.612c4.382,12.272 25.42,24.982 25.42,24.982c-0,-0 -11.395,-14.902 -13.149,-24.105c-1.753,-9.204 16.217,-25.421 16.217,-25.421l-22.791,-3.068Z" style="fill-rule:nonzero;"/><path d="M890.75,1825.77c-0,0 10.08,15.34 5.697,27.612c-4.382,12.272 -25.42,24.982 -25.42,24.982c0,-0 11.395,-14.902 13.148,-24.105c1.754,-9.204 -16.216,-25.421 -16.216,-25.421l22.791,-3.068Z" style="fill-rule:nonzero;"/><circle cx="838.156" cy="1825.77" r="6.136" style="fill:#EA580C;"/><circle cx="873.657" cy="1825.77" r="6.136" style="fill:#EA580C;"/></g></g></svg>